<svg width="21" height="21" viewBox="0 0 21 21" fill="none" xmlns="http://www.w3.org/2000/svg">
<path d="M13.1004 14.5126L14.4466 13.17C14.6279 12.9915 14.8573 12.8692 15.1069 12.8182C15.3566 12.7671 15.6157 12.7894 15.8528 12.8824L17.4935 13.5356C17.7331 13.6327 17.9386 13.7983 18.0841 14.0116C18.2295 14.2249 18.3084 14.4764 18.3108 14.7343V17.731C18.3094 17.9065 18.2724 18.0799 18.202 18.2407C18.1317 18.4016 18.0294 18.5466 17.9014 18.667C17.7734 18.7873 17.6223 18.8807 17.4572 18.9413C17.292 19.0019 17.1163 19.0285 16.9406 19.0196C5.44416 18.3064 3.12444 8.59707 2.68574 4.88115C2.66537 4.69867 2.68398 4.51396 2.74033 4.33917C2.79669 4.16438 2.88951 4.00346 3.0127 3.86702C3.13589 3.73058 3.28665 3.62169 3.45507 3.54753C3.62348 3.47336 3.80573 3.4356 3.98983 3.43673H6.89248C7.1515 3.4375 7.40437 3.51552 7.61856 3.66078C7.83275 3.80604 7.99847 4.01188 8.09441 4.25184L8.74946 5.88804C8.84576 6.12362 8.87033 6.38228 8.8201 6.63171C8.76986 6.88114 8.64705 7.11028 8.467 7.2905L7.12085 8.63303C7.12085 8.63303 7.89609 13.8653 13.1004 14.5126Z" fill="#331A2F"/>
</svg>
