<svg width="36" height="19" viewBox="0 0 36 19" fill="none" xmlns="http://www.w3.org/2000/svg">
<mask id="mask0_1525_19231" style="mask-type:alpha" maskUnits="userSpaceOnUse" x="0" y="0" width="36" height="19">
<ellipse cx="17.5482" cy="9.56729" rx="17.5482" ry="8.87198" fill="url(#paint0_linear_1525_19231)"/>
</mask>
<g mask="url(#mask0_1525_19231)">
<ellipse cx="17.5482" cy="9.56729" rx="17.5482" ry="8.87198" fill="url(#paint1_linear_1525_19231)"/>
<path d="M23.1282 12.0296V2.16842C23.1282 2.01759 23.137 1.85346 23.1545 1.67602C23.1896 1.49858 23.2247 1.31671 23.2598 1.13039L7.15056 12.0296H23.1282ZM38.0399 12.0296V12.7216C38.0399 12.8192 37.9785 12.8991 37.8557 12.9612C37.7504 13.0144 37.5749 13.041 37.3292 13.041H25.3393V18.4441H23.1282V13.041H5.51858C5.25536 13.041 5.05355 13.0144 4.91316 12.9612C4.77278 12.8991 4.67626 12.8192 4.62362 12.7216L4.38672 12.0962L23.1019 -0.41333H25.3393V12.0296H38.0399Z" fill="white"/>
</g>
<defs>
<linearGradient id="paint0_linear_1525_19231" x1="40.3609" y1="-4.62788" x2="30.3445" y2="25.2332" gradientUnits="userSpaceOnUse">
<stop stop-color="#FF00AA"/>
<stop offset="1" stop-color="#8912DE"/>
</linearGradient>
<linearGradient id="paint1_linear_1525_19231" x1="40.3609" y1="-4.62788" x2="30.3445" y2="25.2332" gradientUnits="userSpaceOnUse">
<stop stop-color="#FF00AA"/>
<stop offset="1" stop-color="#8912DE"/>
</linearGradient>
</defs>
</svg>
